<svg width="394" height="60" viewBox="0 0 394 60" fill="none" xmlns="http://www.w3.org/2000/svg">
<g clip-path="url(#clip0_2477_702)">
<path d="M22.0864 21.9329C22.5268 20.0982 22.5268 19.6578 22.5268 19.3398C22.5268 18.1412 21.8336 16.812 19.8113 16.812C19.1753 16.812 17.153 16.812 16.5251 19.4703L12.9209 34.9554C12.8557 35.3387 12.7986 35.7791 12.7986 36.1542C12.7986 37.7361 13.8749 38.682 15.457 38.682C17.2264 38.682 18.5555 37.4181 19.0612 35.0778L22.0946 21.9329H22.0864ZM21.01 0.0628417L17.7238 14.4146C19.1101 12.5799 21.1976 9.98671 25.5602 9.98671C29.0339 9.98671 32.6381 11.8867 32.6381 17.0648C32.6381 20.2857 30.6158 29.1414 29.7271 32.8028C28.5284 37.7931 26.6936 45.5072 18.3517 45.5072C13.5488 45.5072 12.0892 42.0905 11.5836 40.8918L10.6948 44.6837H0.452881L10.76 0.0546875H21.0019L21.01 0.0628417Z" fill="white"/>
<path d="M52.9384 20.5389C53.0608 20.0985 53.1259 19.65 53.1259 19.2098C53.1911 17.5625 51.9272 16.6818 50.4106 16.6818C47.6951 16.6818 47.1244 19.0221 46.8064 20.5389L43.6424 34.067C43.5119 34.6379 43.3897 35.3309 43.3897 36.0323C43.3897 37.3614 44.1479 38.6253 46.105 38.6253C48.8204 38.6253 49.3342 36.4155 49.8968 34.0752L52.9303 20.547L52.9384 20.5389ZM62.9274 19.2098C62.9274 22.7487 60.212 34.0017 59.258 36.9129C58.0594 40.4519 56.0941 45.4505 45.9827 45.4505C38.3992 45.4505 33.531 42.9227 33.531 36.285C33.531 32.6156 36.3768 21.4277 36.9477 19.6583C38.024 16.0539 40.1687 9.92188 49.9049 9.92188C54.9607 9.92188 62.9274 10.7454 62.9274 19.2179" fill="white"/>
<path d="M72.9787 33.1238C72.6607 34.135 72.2857 35.3336 72.2857 36.4753C72.2857 38.2447 73.7371 38.6198 74.8135 38.6198C75.1315 38.6198 75.9469 38.6198 76.6483 38.1794C77.8465 37.3559 78.0997 35.6516 78.0997 34.7627C78.0997 33.4988 77.5939 32.9933 76.8355 32.3654C75.8899 31.5418 70.5157 27.6848 70.3855 27.5624C68.0449 25.7278 66.6589 23.893 66.6589 21.2999C66.6589 19.3429 67.6051 16.4318 68.3635 15.0374C70.1977 11.7511 74.4955 10.0469 79.9993 10.0469C86.6371 10.0469 91.7581 12.64 91.7581 17.818C91.7581 19.0166 91.5055 20.1583 91.2523 21.2918H81.7117C81.8995 20.6557 82.2829 19.2695 82.2829 18.5764C82.2829 18.3236 82.2175 16.6763 79.7551 16.6763C76.7215 16.6763 76.7215 19.8322 76.7215 19.9625C76.7215 21.1694 77.4145 21.7973 78.6787 22.7432C78.7435 22.8085 81.8425 24.953 82.2175 25.2712C86.5147 28.2394 88.6675 29.756 88.6675 33.4255C88.6675 35.513 87.7789 39.3047 86.0743 41.3923C84.4273 43.4146 80.9533 45.3716 75.0091 45.3716C70.2061 45.3716 68.1187 44.491 67.1725 44.0425C63.9433 42.5911 62.4919 40.5688 62.4919 37.2826C62.4919 35.7005 62.8753 34.4366 63.2503 33.1075H72.9865L72.9787 33.1238Z" fill="white"/>
<path d="M100.602 0H110.526L107.998 10.8127H112.483L111.032 16.8795H106.612L102.502 34.5176C102.38 35.0883 102.25 35.9037 102.25 36.4746C102.25 38.244 103.513 38.244 106.359 38.244L104.908 44.6942C96.0603 44.6942 91.4451 44.6942 91.4451 39.6384C91.4451 38.562 91.6329 37.7385 92.0157 36.3522L100.611 0H100.602Z" fill="white"/>
<path d="M128.548 20.5389C128.67 20.0985 128.736 19.65 128.736 19.2098C128.801 17.5625 127.537 16.6818 126.02 16.6818C123.305 16.6818 122.734 19.0221 122.416 20.5389L119.252 34.067C119.121 34.6379 118.999 35.3309 118.999 36.0323C118.999 37.3614 119.757 38.6253 121.715 38.6253C124.43 38.6253 124.944 36.4155 125.507 34.0752L128.54 20.547L128.548 20.5389ZM138.537 19.2098C138.537 22.7487 135.822 34.0017 134.868 36.9129C133.669 40.4519 131.703 45.4505 121.592 45.4505C114.009 45.4505 109.14 42.9227 109.14 36.285C109.14 32.6156 111.986 21.4277 112.557 19.6583C113.634 16.0539 115.778 9.92188 125.514 9.92188C130.57 9.92188 138.537 10.7454 138.537 19.2179" fill="white"/>
<path d="M163.571 44.6948H153.518L158.948 20.8595C159.135 20.1013 159.135 19.5304 159.135 19.2776C159.135 16.8721 157.047 16.8721 156.795 16.8721C153.884 16.8721 153.191 19.9055 153.003 20.9167L147.507 44.6867H137.648L145.419 10.8052H155.343L154.52 14.1566C158.312 10.1692 162.422 10.0469 163.499 10.0469C165.398 10.0469 169.818 10.6829 169.818 16.1789C169.818 17.3777 169.631 18.454 169.377 19.4651L163.563 44.6867L163.571 44.6948Z" fill="white"/>
<path d="M189.291 0.0664062L178.992 44.6953H189.103L199.41 0.0664062H189.291Z" fill="white"/>
<path d="M216.407 20.5389C216.529 20.0985 216.595 19.65 216.595 19.2098C216.659 17.5625 215.396 16.6818 213.88 16.6818C211.163 16.6818 210.593 19.0221 210.275 20.5389L207.112 34.067C206.981 34.6379 206.858 35.3309 206.858 36.0323C206.858 37.3614 207.617 38.6253 209.573 38.6253C212.29 38.6253 212.803 36.4155 213.365 34.0752L216.398 20.547L216.407 20.5389ZM226.396 19.2098C226.396 22.7487 223.681 34.0017 222.727 36.9129C221.528 40.4519 219.571 45.4505 209.452 45.4505C201.868 45.4505 197 42.9227 197 36.285C197 32.6156 199.846 21.4277 200.408 19.6583C201.485 16.0539 203.638 9.92188 213.365 9.92188C218.422 9.92188 226.388 10.7454 226.388 19.2179" fill="white"/>
<path d="M247.519 20.3536C247.585 20.0356 247.642 19.6605 247.642 19.3425C247.642 17.1327 245.936 16.7494 244.925 16.7494C243.475 16.7494 241.828 17.3854 241.004 20.8593L238.223 32.8054C238.036 33.6291 237.782 34.9582 237.782 35.8389C237.782 38.432 239.617 38.5542 240.31 38.5542C242.716 38.5542 243.85 36.4015 244.298 34.3792L247.519 20.3455V20.3536ZM242.839 40.5848C241.453 42.3542 239.111 45.2654 234.619 45.2654C233.036 45.2654 231.202 44.825 229.816 43.6182C228.299 42.2238 227.728 40.2668 227.728 37.8041C227.728 33.8247 230.126 24.594 231.332 20.5494C233.102 14.6701 235.507 10.0547 241.762 10.0547C246.695 10.0547 248.717 13.6589 248.717 14.9229L249.728 10.813H259.906L252.004 45.0779C250.739 50.3864 249.982 53.7378 247.454 56.3309C244.673 59.1767 240.497 60.0003 236.519 60.0003C233.99 60.0003 224.125 59.8128 224.125 51.5931C224.125 50.3292 224.377 49.3181 224.695 48.1764H234.749C234.113 50.7044 234.113 50.9571 234.113 51.4056C234.113 53.7459 236.323 53.7459 236.959 53.7459C237.905 53.7459 239.74 53.7459 240.751 49.5138L242.839 40.6009V40.5848Z" fill="white"/>
<path d="M276.518 28.8284C274.244 29.5215 271.333 30.4103 270.134 31.3563C268.487 32.6855 268.046 36.2897 268.046 36.9176C268.046 38.051 268.552 39.0051 270.256 39.0051C271.96 39.0051 273.355 37.9287 274.432 36.9828L276.518 28.8284ZM283.279 40.8398C283.213 41.3455 283.091 41.851 283.091 42.3566C283.091 43.8733 283.531 44.1913 284.036 44.6969H272.531L273.419 41.1578C271.145 43.1149 268.298 45.5857 264.32 45.5857C263.627 45.5857 257.617 45.5857 257.617 39.4536C257.617 37.3661 258.946 31.4214 261.034 29.0241C263.12 26.6267 266.155 25.7379 277.978 22.3212C278.296 20.9921 278.737 18.8474 278.737 18.3338C278.737 16.5642 277.09 16.4418 276.022 16.4418C273.175 16.4418 272.669 17.9586 271.724 21.3753H262.118C263.569 15.4959 264.328 13.539 267.427 11.957C269.767 10.7583 272.987 10.1875 276.527 10.1875C282.341 10.1875 288.343 11.639 288.343 17.5835C288.343 18.8474 288.089 20.1114 287.771 21.3753L283.286 40.848L283.279 40.8398Z" fill="white"/>
<path d="M313.955 44.6948H303.9L309.33 20.8595C309.518 20.1013 309.518 19.5304 309.518 19.2776C309.518 16.8721 307.431 16.8721 307.178 16.8721C304.266 16.8721 303.573 19.9055 303.386 20.9167L297.882 44.6867H288.023L295.802 10.8052H305.726L304.902 14.1566C308.694 10.1692 312.804 10.0469 313.881 10.0469C315.78 10.0469 320.201 10.6829 320.201 16.1789C320.201 17.3777 320.013 18.454 319.76 19.4651L313.946 44.6867L313.955 44.6948Z" fill="white"/>
<mask id="mask0_2477_702" style="mask-type:luminance" maskUnits="userSpaceOnUse" x="327" y="13" width="67" height="33">
<path d="M393.292 13.8047H327.453V45.8214H393.292V13.8047Z" fill="white"/>
</mask>
<g mask="url(#mask0_2477_702)">
<mask id="mask1_2477_702" style="mask-type:luminance" maskUnits="userSpaceOnUse" x="327" y="12" width="67" height="34">
<path d="M327.453 45.809H393.293V12.9922H327.453V45.809Z" fill="white"/>
</mask>
<g mask="url(#mask1_2477_702)">
<path d="M332.77 23.6371H363.834L362.605 22.2539H332.156L332.77 23.6371Z" fill="white"/>
<path d="M334.381 21.908L331.194 16.8008H329.773L332 21.908H334.381Z" fill="white"/>
<path d="M337.538 21.908L332.968 16.8008H331.586L334.773 21.908H337.538Z" fill="white"/>
<path d="M342.625 26.9219L343.585 28.3043H347.54L346.58 26.9219H342.625Z" fill="white"/>
<path d="M342.801 34.8575C342.801 33.8982 342.033 33.207 340.996 33.207C339.959 33.207 339.23 33.7439 338.692 34.3583C338.423 33.7071 338.001 33.207 337.041 33.207C336.273 33.207 335.62 33.4751 335.044 34.0518L335.006 33.3215H332.165L330.437 43.6134H333.279L334.43 36.8159C334.506 36.2783 334.775 35.7039 335.274 35.7039C335.582 35.7039 335.697 35.9727 335.697 36.1254C335.697 36.2783 335.697 36.4326 335.658 36.6639L334.506 43.6134H337.348L338.5 36.8159C338.577 36.2783 338.846 35.7039 339.345 35.7039C339.652 35.7039 339.767 35.9727 339.767 36.1254C339.767 36.2783 339.767 36.4326 339.729 36.6639L338.577 43.6134H341.418L342.647 36.2022C342.724 35.8175 342.801 35.1263 342.801 34.8575Z" fill="white"/>
<path d="M368.385 43.8433C369.959 43.8433 370.651 42.4985 370.843 41.3857L371.726 35.9713C371.764 35.6257 371.803 35.2801 371.803 34.8953C371.803 33.8209 370.958 33.1289 369.998 33.1289C369.191 33.1289 368.577 33.4369 368.078 33.9361L368.193 33.3217H365.351L363.14 46.6169H366.02L366.619 42.8065C366.926 43.3057 367.502 43.8433 368.385 43.8433Z" fill="white"/>
<path d="M333.536 25.3636H365.33L364.101 23.9805H332.922L333.536 25.3636Z" fill="white"/>
<path d="M352.11 28.3043L351.15 26.9219H347.195L348.155 28.3043H352.11Z" fill="white"/>
<path d="M361.538 33.0156C358.696 33.0156 357.775 34.3588 357.775 36.1644C357.775 36.8556 358.083 37.7004 359.388 38.9292C360.693 40.158 360.924 40.542 360.924 41.0404C360.924 41.5396 360.463 41.9236 360.079 41.9236C359.695 41.9236 359.311 41.386 359.426 40.8108L359.58 39.966H357.045L356.892 40.8108C356.623 42.3852 357.122 43.8436 360.002 43.8436C362.498 43.8436 363.688 42.346 363.688 40.6564C363.688 39.6588 363.458 39.0052 361.768 37.3164C360.924 36.4708 360.501 36.2412 360.501 35.6268C360.501 35.05 360.808 34.9356 361.192 34.9356C361.576 34.9356 361.922 35.0892 361.768 35.9724L361.653 36.6244H364.149L364.264 35.9724C364.456 34.7436 364.38 33.0156 361.538 33.0156Z" fill="white"/>
<path d="M376.083 33.0469C373.626 33.0469 372.474 34.1605 372.167 36.1581L371.552 40.0365C371.283 41.7253 371.437 43.9141 374.395 43.9141C376.467 43.9141 377.928 43.1085 378.311 40.7653L379.002 36.5413C379.425 33.9301 378.003 33.0469 376.083 33.0469Z" fill="white"/>
<path d="M385.256 33.3242H384.834C384.181 33.3242 383.451 33.5938 382.8 34.3234L382.952 33.3242H380.11L378.383 43.6162H381.225L382.223 37.6258C382.452 36.3202 383.299 36.1282 384.181 36.1282H384.797L385.256 33.3242Z" fill="white"/>
<path d="M389.095 30.8203H386.215L384.641 40.4587C384.334 42.2635 384.641 43.6075 386.638 43.6075H388.788L389.134 41.4955H388.212C387.52 41.4955 387.368 41.1115 387.52 40.1515L388.328 35.4283H390.055L390.401 33.3155H388.673L389.095 30.8203Z" fill="white"/>
<path d="M333.217 30.0269H364.398L365.396 28.6445H333.14C333.14 28.9901 333.14 29.4893 333.217 30.0269Z" fill="white"/>
<path d="M347.164 33.0391C344.36 33.0391 343.669 34.3055 343.4 35.7639L343.247 36.6095H345.896L346.012 35.9183C346.127 35.3039 346.319 34.9575 346.856 34.9575C347.356 34.9575 347.394 35.3423 347.317 35.7255C347.164 36.6095 346.319 37.0327 345.282 37.4159C343.938 37.9151 342.824 38.4151 342.479 40.2567L342.248 41.4871C342.018 42.7911 342.517 43.8279 344.092 43.8279C344.898 43.8279 345.628 43.4447 346.088 43.0983L346.012 43.5983H348.853L350.12 35.9559C350.504 33.7287 348.968 33.0391 347.164 33.0391Z" fill="white"/>
<path d="M363.163 31.7574L364.161 30.375H333.289C333.48 31.1046 333.903 31.7574 334.825 31.7574H363.163Z" fill="white"/>
<path d="M353.407 35.6268C353.407 35.05 353.715 34.9365 354.099 34.9365C354.483 34.9365 354.828 35.0892 354.675 35.9733L354.559 36.6244H357.055L357.171 35.9733C357.363 34.7436 357.286 33.0156 354.444 33.0156C351.603 33.0156 350.681 34.3588 350.681 36.1644C350.681 36.8556 350.989 37.7013 352.294 38.9292C353.6 40.158 353.83 40.5429 353.83 41.0412C353.83 41.5404 353.37 41.9236 352.986 41.9236C352.601 41.9236 352.218 41.386 352.332 40.8108L352.486 39.966H349.952L349.798 40.8108C349.529 42.3852 350.029 43.8436 352.909 43.8436C355.404 43.8436 356.595 42.346 356.595 40.6564C356.595 39.6588 356.364 39.006 354.675 37.3164C353.83 36.4716 353.407 36.2421 353.407 35.6268Z" fill="white"/>
<path d="M367.502 41.7291C367.886 41.7291 368.001 41.2691 368.117 40.6931L368.846 36.3531C368.961 35.7787 368.885 35.3555 368.462 35.3555C368.04 35.3555 367.809 35.7395 367.694 36.4691L366.964 40.7307C366.849 41.3459 367.118 41.7291 367.502 41.7291Z" fill="#003CA6"/>
<path d="M375.821 34.9688C375.398 34.9688 375.168 35.3528 375.052 36.0824L374.245 40.9592C374.131 41.5736 374.4 41.9576 374.783 41.9576C375.168 41.9576 375.36 41.4968 375.437 40.9208L376.243 35.9672C376.32 35.3912 376.243 34.9688 375.821 34.9688Z" fill="#003CA6"/>
<path d="M345.534 39.9474L345.265 41.3682C345.227 41.6754 345.227 42.0978 345.649 42.0978C346.072 42.0978 346.417 41.5617 346.533 40.8306L346.917 38.5273C346.341 38.8338 345.611 39.4098 345.534 39.9474Z" fill="#003CA6"/>
</g>
</g>
</g>
<defs>
<clipPath id="clip0_2477_702">
<rect width="393" height="60" fill="white" transform="translate(0.452881)"/>
</clipPath>
</defs>
</svg>
