<svg width="167" height="60" viewBox="0 0 167 60" fill="none" xmlns="http://www.w3.org/2000/svg">
<g clip-path="url(#clip0_2477_692)">
<mask id="mask0_2477_692" style="mask-type:luminance" maskUnits="userSpaceOnUse" x="0" y="0" width="167" height="60">
<path d="M166.547 0H0.392639V59.8512H166.547V0Z" fill="white"/>
</mask>
<g mask="url(#mask0_2477_692)">
<path d="M151.559 23.675C151.625 23.2128 151.725 22.6847 151.857 22.1566C151.991 21.5954 152.157 21.0344 152.356 20.4402C152.556 19.8461 152.821 19.318 153.12 18.8228C153.42 18.3277 153.785 17.9316 154.218 17.6346C154.65 17.3375 155.148 17.1725 155.713 17.1725C156.445 17.1725 157.042 17.4035 157.541 17.7996C158.04 18.2287 158.438 18.7568 158.771 19.384C159.103 20.0111 159.336 20.6712 159.468 21.3644C159.601 22.0576 159.701 22.6847 159.701 23.2128C159.701 23.807 159.535 24.2031 159.203 24.4341C158.871 24.6652 158.572 24.7972 158.272 24.8302C158.172 24.8632 157.973 24.8632 157.641 24.8632C157.308 24.8632 156.91 24.8962 156.445 24.8962C155.979 24.9292 155.48 24.9292 154.982 24.9622C154.484 24.9952 153.985 24.9952 153.52 25.0282C153.055 25.0612 152.689 25.0612 152.39 25.0612C152.09 25.0612 151.891 25.0612 151.825 25.0612C151.559 25.0612 151.459 24.9292 151.492 24.6981C151.426 24.5001 151.492 24.1371 151.559 23.675ZM165.916 26.5136C166.115 26.5136 166.282 26.4805 166.381 26.4145C166.515 26.3485 166.548 26.2165 166.548 26.0184C166.548 25.6224 166.481 25.0942 166.349 24.4011C166.215 23.741 165.983 23.0148 165.684 22.2226C165.352 21.4634 164.952 20.6712 164.42 19.9121C163.889 19.1529 163.225 18.4267 162.427 17.7996C161.629 17.1725 160.665 16.6443 159.601 16.2813C158.504 15.8852 157.242 15.6872 155.813 15.6872C154.283 15.6872 152.788 15.9842 151.326 16.5783C149.864 17.1725 148.534 18.0306 147.371 19.1529C146.208 20.2752 145.277 21.6614 144.546 23.3118C143.815 24.9622 143.483 26.8766 143.483 29.0222C143.483 31.0026 143.782 32.752 144.346 34.3363C144.912 35.9207 145.743 37.241 146.806 38.3302C147.87 39.4195 149.133 40.2447 150.628 40.8388C152.123 41.3999 153.785 41.697 155.614 41.697C156.81 41.697 157.94 41.565 158.904 41.3339C159.901 41.1029 160.765 40.7728 161.529 40.3767C162.294 39.9806 162.959 39.5845 163.49 39.1224C164.055 38.6604 164.487 38.2312 164.853 37.8021C165.218 37.373 165.484 37.01 165.684 36.6799C165.883 36.3498 166.016 36.1518 166.049 36.0527C166.182 35.7557 166.182 35.5246 166.049 35.3596C165.916 35.1945 165.684 35.1945 165.451 35.2936C165.285 35.3596 165.019 35.5246 164.687 35.7557C164.321 35.9867 163.889 36.2507 163.324 36.5148C162.759 36.7788 162.128 37.01 161.396 37.208C160.665 37.4061 159.8 37.505 158.836 37.505C157.575 37.505 156.477 37.307 155.547 36.9109C154.616 36.5148 153.819 35.8877 153.187 35.0295C152.556 34.1713 152.058 33.082 151.725 31.7617C151.393 30.4415 151.227 28.8241 151.227 26.9757C151.227 26.6786 151.359 26.5136 151.658 26.5136H165.916ZM140.358 40.0796C139.992 39.9806 139.627 39.8155 139.262 39.5515C138.896 39.3205 138.563 38.9574 138.265 38.4952C137.966 38.0331 137.832 37.4721 137.832 36.7459V26.1835V26.0515C137.832 25.3914 137.832 24.6981 137.8 23.939C137.765 23.1798 137.666 22.4207 137.533 21.6614C137.367 20.9023 137.135 20.1431 136.769 19.45C136.403 18.7239 135.905 18.0966 135.24 17.5685C134.576 17.0075 133.711 16.5783 132.714 16.2482C131.684 15.9182 130.421 15.7532 128.925 15.7532C127.995 15.7532 127.164 15.8192 126.399 15.9842C125.635 16.1162 124.937 16.3142 124.339 16.5453C123.708 16.7763 123.175 17.0735 122.677 17.3705C122.178 17.7006 121.747 18.0306 121.347 18.3607V16.0172C121.347 15.7532 121.248 15.6211 121.082 15.6211C120.916 15.5881 120.75 15.6541 120.583 15.7532C119.952 16.1822 119.254 16.5783 118.456 17.0075C117.658 17.4035 116.861 17.7996 115.996 18.1627C115.166 18.5258 114.302 18.8228 113.471 19.1199C112.64 19.417 111.876 19.615 111.145 19.7801C110.879 19.8461 110.746 19.9781 110.746 20.1762C110.746 20.3742 110.879 20.5063 111.111 20.5392C111.177 20.5723 111.311 20.6052 111.577 20.6383C111.809 20.7043 112.108 20.7703 112.375 20.8363C112.673 20.9023 112.939 20.9683 113.172 21.0344C113.404 21.1004 113.538 21.1004 113.571 21.1004C113.804 21.1664 113.903 21.2984 113.903 21.5294V36.7459C113.903 37.4721 113.77 38.0662 113.471 38.4952C113.172 38.9574 112.84 39.2874 112.474 39.5515C112.108 39.7826 111.743 39.9806 111.378 40.0796C111.011 40.1787 110.779 40.2447 110.613 40.2447C110.48 40.2776 110.347 40.3437 110.28 40.4097C110.215 40.4757 110.18 40.5748 110.215 40.6738C110.247 40.7728 110.28 40.8388 110.381 40.9048C110.446 40.9709 110.58 41.0038 110.713 41.0038H124.538C124.672 41.0038 124.804 40.9709 124.871 40.9048C124.937 40.8388 125.004 40.7398 125.037 40.6738C125.07 40.5748 125.037 40.5088 124.97 40.4097C124.904 40.3437 124.804 40.2776 124.638 40.2447C124.506 40.2117 124.239 40.1787 123.874 40.0796C123.509 39.9806 123.142 39.8155 122.777 39.5515C122.411 39.3205 122.079 38.9574 121.78 38.4952C121.481 38.0331 121.347 37.4721 121.347 36.7459V24.1371C121.347 23.5759 121.381 22.9488 121.448 22.2556C121.514 21.5625 121.68 20.9023 121.979 20.2752C122.279 19.648 122.711 19.1199 123.275 18.7239C123.874 18.2947 124.705 18.0966 125.768 18.0966C126.798 18.0966 127.629 18.2947 128.228 18.7239C128.86 19.1529 129.324 19.714 129.623 20.3742C129.955 21.0344 130.155 21.7935 130.255 22.5857C130.355 23.4109 130.421 24.2031 130.421 24.9622V26.4805V26.7117V36.7459C130.421 37.4721 130.288 38.0662 129.989 38.4952C129.69 38.9574 129.358 39.2874 128.992 39.5515C128.626 39.7826 128.261 39.9806 127.896 40.0796C127.529 40.1787 127.297 40.2447 127.131 40.2447C126.998 40.2776 126.865 40.3437 126.799 40.4097C126.731 40.4757 126.698 40.5748 126.731 40.6738C126.765 40.7728 126.798 40.8388 126.897 40.9048C126.964 40.9709 127.098 41.0038 127.23 41.0038H130.421H130.654H137.599H137.832H141.023C141.155 41.0038 141.289 40.9709 141.356 40.9048C141.422 40.8388 141.488 40.7398 141.522 40.6738C141.555 40.5748 141.522 40.5088 141.455 40.4097C141.389 40.3437 141.289 40.2776 141.123 40.2447C140.956 40.2117 140.724 40.1787 140.358 40.0796ZM106.558 40.0796C106.193 39.9806 105.826 39.8155 105.461 39.5515C105.096 39.3205 104.763 38.9574 104.464 38.4952C104.165 38.0331 104.032 37.4721 104.032 36.7459V17.1065C104.032 16.6443 103.8 16.3803 103.367 16.3803H93.3972C93.264 16.3803 93.1307 16.4133 93.0649 16.4793C92.998 16.5453 92.9316 16.6443 92.8988 16.7103C92.8647 16.7763 92.8988 16.9084 92.9645 16.9744C93.0315 17.0735 93.1307 17.1065 93.2968 17.1395C93.4301 17.1725 93.6961 17.2385 94.0618 17.3375C94.427 17.4365 94.7922 17.6016 95.1586 17.8326C95.5238 18.0637 95.8561 18.4267 96.1555 18.8888C96.4549 19.3509 96.587 19.9121 96.587 20.6383V32.4879C96.587 33.214 96.5541 33.9733 96.4549 34.7654C96.3545 35.5576 96.1555 36.2838 95.8561 36.944C95.5572 37.6041 95.0916 38.1322 94.494 38.5612C93.8957 38.9904 93.0978 39.1885 92.068 39.1885C91.104 39.1885 90.3061 38.9904 89.7407 38.6273C89.1759 38.2642 88.7109 37.7691 88.3786 37.175C88.0463 36.5808 87.8467 35.9207 87.7134 35.1945C87.5807 34.4683 87.5143 33.7422 87.5143 33.016V17.1065C87.5143 16.6443 87.2813 16.3803 86.8497 16.3803H76.8788C76.7461 16.3803 76.6128 16.4133 76.5465 16.4793C76.4801 16.5453 76.4138 16.6443 76.3803 16.7103C76.3474 16.8094 76.3803 16.9084 76.4466 16.9744C76.5136 17.0735 76.6128 17.1065 76.7795 17.1395C76.9122 17.1725 77.1782 17.2385 77.544 17.3375C77.9092 17.4365 78.2749 17.6016 78.6401 17.8326C79.0059 18.0637 79.3382 18.4267 79.6376 18.8888C79.9365 19.3509 80.0697 19.9121 80.0697 20.6383V31.3327C80.0697 31.9928 80.0697 32.6859 80.1026 33.4451C80.1361 34.2043 80.2359 34.9635 80.3686 35.7226C80.5347 36.4818 80.7672 37.241 81.133 37.9342C81.4988 38.6604 81.9972 39.2874 82.6618 39.8155C83.3265 40.3767 84.1907 40.8058 85.1876 41.1358C86.218 41.4659 87.4809 41.631 88.9768 41.631C90.8045 41.631 92.3334 41.3339 93.5634 40.7728C94.7922 40.2116 95.7903 39.5185 96.5541 38.7593V40.3767C96.5541 40.5748 96.6211 40.7068 96.7203 40.8058C96.853 40.9048 96.9863 40.9378 97.1853 40.9378H107.157C107.289 40.9378 107.422 40.9048 107.489 40.8388C107.555 40.7728 107.622 40.6738 107.655 40.6077C107.688 40.5088 107.655 40.4427 107.588 40.3437C107.522 40.2776 107.422 40.2116 107.256 40.1786C107.157 40.2116 106.89 40.1787 106.558 40.0796ZM63.9834 32.1249C63.9834 32.6859 63.917 33.3461 63.7843 34.0723C63.6511 34.7984 63.3857 35.5246 62.9865 36.1518C62.5878 36.8119 61.9895 37.373 61.2586 37.8351C60.4942 38.2972 59.4967 38.5283 58.2672 38.5283C57.3034 38.5283 56.4725 38.3302 55.8078 37.9011C55.1431 37.505 54.6113 36.9769 54.1792 36.3168C53.7472 35.6897 53.4481 34.9635 53.2155 34.1383C52.9828 33.3461 52.8498 32.5539 52.7501 31.7617C52.6504 30.9696 52.584 30.2434 52.584 29.5503C52.584 28.8571 52.584 28.3289 52.584 27.9329C52.584 26.4145 52.6837 24.9952 52.9163 23.7079C53.149 22.3876 53.4813 21.2654 53.9798 20.3082C54.4452 19.3509 55.0767 18.5918 55.841 18.0637C56.6055 17.5025 57.536 17.2385 58.633 17.2385C59.364 17.2385 59.9957 17.3705 60.527 17.6016C61.0924 17.8326 61.5574 18.1627 61.9561 18.5587C62.3553 18.9549 62.6876 19.417 62.9536 19.9121C63.2195 20.4072 63.4186 20.9683 63.5847 21.4964C63.7509 22.0576 63.8507 22.6187 63.917 23.1468C63.9834 23.7079 64.0168 24.2031 64.0168 24.6652V32.1249H63.9834ZM73.9872 40.0796C73.622 39.9806 73.2563 39.8155 72.8905 39.5515C72.5253 39.3205 72.193 38.9574 71.8936 38.4952C71.5947 38.0331 71.4615 37.4721 71.4615 36.7459V0.404676C71.4615 0.140616 71.3617 0.00858621 71.1955 0.00858621C71.0293 -0.0244212 70.8632 0.0415937 70.697 0.140616C70.0659 0.569713 69.3678 0.965798 68.5699 1.3949C67.7726 1.79099 66.9747 2.18707 66.1105 2.55016C65.2797 2.91324 64.4155 3.21031 63.5847 3.50737C62.754 3.80444 61.9561 4.00248 61.2586 4.16752C60.9926 4.23354 60.8593 4.36556 60.8593 4.56361C60.8593 4.76166 60.9926 4.8937 61.2251 4.92669C61.2915 4.9597 61.4247 4.99271 61.6907 5.02573C61.9232 5.09174 62.222 5.15775 62.488 5.22376C62.7874 5.28978 63.0534 5.35579 63.2859 5.42181C63.5184 5.48783 63.6511 5.48783 63.6845 5.48783C63.917 5.55384 64.0168 5.68588 64.0168 5.91692V17.0075C64.0168 17.1065 63.9834 17.1725 63.8842 17.2055C63.8172 17.2385 63.718 17.2385 63.6182 17.1395C63.5847 17.1065 63.4186 17.0404 63.1526 16.8754C62.8872 16.7103 62.4551 16.5453 61.9232 16.3803C61.3578 16.2153 60.6603 16.0502 59.8295 15.9182C58.9982 15.7861 57.9681 15.7201 56.8381 15.7201C54.7775 15.7201 52.9496 16.0502 51.4207 16.6774C49.8919 17.3045 48.5957 18.2287 47.5987 19.417C46.5684 20.6052 45.804 22.0246 45.3054 23.7079C44.8069 25.3914 44.5411 27.2398 44.5411 29.2862C44.5411 30.1113 44.6075 30.9696 44.7072 31.9268C44.8402 32.851 45.0396 33.7752 45.3387 34.7324C45.6377 35.6566 46.0699 36.5478 46.5684 37.373C47.1002 38.1982 47.7649 38.9574 48.5625 39.6175C49.3602 40.2776 50.324 40.8058 51.4207 41.1689C52.5175 41.565 53.8137 41.73 55.2761 41.73C56.6055 41.73 57.7355 41.565 58.7322 41.2349C59.7297 40.9048 60.527 40.5417 61.2251 40.1127C61.8897 39.6835 62.4217 39.2545 62.8203 38.8253C63.2195 38.3963 63.4849 38.0662 63.6511 37.8681C63.718 37.7691 63.8172 37.7361 63.8842 37.8021C63.9834 37.8351 64.0168 37.9342 64.0168 38.0331V40.4428C64.0168 40.6408 64.0832 40.7728 64.183 40.8718C64.3163 40.9709 64.449 41.0038 64.6815 41.0038H74.6524C74.7851 41.0038 74.9178 40.9709 74.9847 40.9048C75.0511 40.8388 75.1174 40.7398 75.1509 40.6738C75.1838 40.5748 75.1509 40.5088 75.0845 40.4097C75.0176 40.3437 74.9184 40.2776 74.7516 40.2447C74.619 40.2117 74.353 40.1787 73.9872 40.0796Z" fill="white"/>
<path d="M153.683 59.6843C153.782 59.618 153.849 59.5522 153.916 59.453C153.981 59.3543 154.015 59.2551 154.015 59.123C154.015 58.9909 153.981 58.8922 153.916 58.793C153.849 58.6937 153.782 58.628 153.683 58.5622C153.583 58.4959 153.483 58.463 153.351 58.463C153.218 58.463 153.118 58.4959 153.018 58.5622C152.919 58.628 152.852 58.6937 152.785 58.793C152.72 58.8922 152.686 58.9909 152.686 59.123C152.686 59.2551 152.72 59.3543 152.785 59.453C152.852 59.5522 152.919 59.618 153.018 59.6843C153.118 59.7501 153.218 59.783 153.351 59.783C153.483 59.783 153.616 59.7501 153.683 59.6843ZM144.976 58.628C144.776 58.5287 144.61 58.4301 144.477 58.2651C144.344 58.1001 144.211 57.9016 144.145 57.7037C144.077 57.4726 144.011 57.2416 144.011 56.9776C144.011 56.7135 144.044 56.4824 144.145 56.2514C144.211 56.0203 144.344 55.8553 144.477 55.6902C144.61 55.5252 144.776 55.3932 144.976 55.3272C145.175 55.2281 145.374 55.1952 145.607 55.1952C145.839 55.1952 146.038 55.2281 146.238 55.3272C146.437 55.4262 146.604 55.5252 146.737 55.6902C146.87 55.8553 147.002 56.0533 147.069 56.2514C147.136 56.4824 147.202 56.7135 147.202 56.9776C147.202 57.2416 147.168 57.4726 147.069 57.7037C147.002 57.9345 146.87 58.1001 146.737 58.2651C146.604 58.4301 146.437 58.5622 146.238 58.628C146.038 58.7266 145.839 58.7601 145.607 58.7601C145.374 58.7601 145.175 58.6937 144.976 58.628ZM146.67 59.5522C147.002 59.4201 147.302 59.2222 147.535 58.958C147.8 58.6937 147.966 58.3966 148.132 58.0666C148.265 57.7366 148.332 57.3737 148.332 56.9776C148.332 56.5815 148.265 56.2183 148.132 55.8883C148 55.5582 147.8 55.2612 147.535 54.9971C147.268 54.733 147.002 54.535 146.67 54.403C146.338 54.2709 145.972 54.1719 145.607 54.1719C145.207 54.1719 144.875 54.2379 144.543 54.403C144.211 54.535 143.911 54.733 143.679 54.9971C143.413 55.2612 143.246 55.5582 143.08 55.8883C142.948 56.2183 142.881 56.5815 142.881 56.9776C142.881 57.3737 142.948 57.7366 143.08 58.0666C143.214 58.3966 143.413 58.6937 143.679 58.958C143.945 59.2222 144.211 59.4201 144.543 59.5522C144.875 59.6843 145.241 59.783 145.607 59.783C145.972 59.783 146.338 59.6843 146.67 59.5522ZM138.295 59.618C138.594 59.5193 138.86 59.3872 139.059 59.2551L138.594 58.3637C138.461 58.4959 138.262 58.5622 138.062 58.628C137.863 58.6937 137.631 58.7272 137.398 58.7272C137.132 58.7272 136.866 58.6937 136.633 58.5951C136.401 58.4959 136.201 58.3966 136.035 58.2316C135.869 58.0666 135.736 57.8687 135.636 57.6707C135.536 57.4397 135.504 57.2086 135.504 56.9776C135.504 56.7135 135.536 56.4824 135.636 56.2843C135.736 56.0863 135.869 55.8883 136.035 55.7233C136.201 55.5582 136.401 55.4262 136.633 55.3602C136.866 55.2612 137.098 55.2281 137.398 55.2281C137.631 55.2281 137.863 55.2612 138.062 55.3272C138.262 55.3932 138.461 55.4922 138.594 55.5913L139.059 54.7C138.827 54.535 138.594 54.4359 138.295 54.337C137.996 54.2379 137.664 54.2049 137.331 54.2049C136.932 54.2049 136.533 54.2709 136.168 54.4359C135.802 54.568 135.504 54.766 135.204 55.0301C134.938 55.2942 134.706 55.5913 134.573 55.9213C134.407 56.2514 134.339 56.6145 134.339 57.0105C134.339 57.4066 134.407 57.7695 134.573 58.1001C134.739 58.4301 134.938 58.7272 135.204 58.9909C135.47 59.2551 135.802 59.453 136.168 59.5851C136.533 59.7172 136.932 59.8164 137.331 59.8164C137.664 59.783 137.996 59.7172 138.295 59.618ZM121.677 58.7272C121.179 58.7272 120.879 58.4301 120.879 58.0666C120.879 57.7695 121.045 57.5057 121.412 57.3406L122.575 58.463C122.309 58.628 122.009 58.7272 121.677 58.7272ZM123.539 55.7233C123.572 54.9971 123.04 54.3699 121.976 54.3699C120.947 54.3699 120.348 54.964 120.348 55.6902C120.348 56.0203 120.448 56.3174 120.713 56.6145C119.983 56.9445 119.65 57.5057 119.65 58.133C119.65 59.0901 120.414 59.7172 121.644 59.7172C122.342 59.7172 122.907 59.5193 123.373 59.1559L123.871 59.618H125.366L124.104 58.3966C124.27 58.1659 124.436 57.8687 124.569 57.5717L124.934 56.9116H123.672L123.406 57.3736C123.373 57.4397 123.339 57.5057 123.306 57.5717L122.042 56.3504C121.777 56.0533 121.611 55.8553 121.611 55.6242C121.611 55.3932 121.777 55.2612 122.042 55.2612C122.276 55.2612 122.442 55.3932 122.442 55.6902H123.539V55.7233ZM108.981 59.6509V57.2416L110.975 54.2379H109.679L108.45 56.1523L107.22 54.2379H105.924L107.917 57.2416V59.6509H108.981ZM100.041 55.0961H100.507C100.839 55.0961 101.105 55.1621 101.271 55.2942C101.471 55.4262 101.537 55.6242 101.537 55.8883C101.537 56.0533 101.504 56.2183 101.403 56.3174C101.338 56.4495 101.204 56.5484 101.038 56.6145C100.872 56.6805 100.706 56.7135 100.473 56.7135H100.008V55.0961H100.041ZM100.041 59.6509V57.6047H100.307L101.869 59.6509H103.231L101.437 57.4726C101.703 57.4066 101.902 57.2746 102.101 57.1426C102.268 56.9776 102.434 56.8125 102.534 56.5815C102.634 56.3504 102.667 56.1194 102.667 55.8553C102.667 55.5252 102.601 55.2281 102.434 54.964C102.268 54.733 102.068 54.535 101.803 54.403C101.537 54.2709 101.204 54.2049 100.839 54.2049H98.9775V59.618H100.041V59.6509ZM94.7896 59.6509V58.7272H92.7957V54.2379H91.7319V59.6509H94.7896ZM87.1125 59.6509V58.7272H85.1515V57.4066H87.0461V56.4824H85.1515V55.1621H87.1125V54.2379H84.0882V59.6509H87.1125ZM75.0484 59.6509L76.0788 56.2843L77.1086 59.6509H78.3051L79.8675 54.2379H78.6709L77.6405 58.1987L76.4775 54.2379H75.6796L74.5165 58.1987L73.4861 54.2379H72.2896L73.8519 59.6509H75.0484ZM68.2684 59.6509V58.7272H66.3075V57.4066H68.2015V56.4824H66.3075V55.1621H68.2684V54.2379H65.2436V59.6509H68.2684ZM60.0594 59.3543C60.3582 59.0572 60.4915 58.6609 60.4915 58.1659V54.2709H59.4276V57.9016C59.4276 58.1659 59.3613 58.3966 59.228 58.5622C59.0953 58.7272 58.9292 58.793 58.6967 58.793C58.4307 58.793 58.1982 58.6609 57.8989 58.4301L57.5333 59.3209C57.8989 59.6509 58.3309 59.8493 58.8294 59.8493C59.3613 59.783 59.76 59.618 60.0594 59.3543Z" fill="white"/>
<path d="M2.06521 15.5187C1.59991 17.3671 1.23433 19.0506 0.968445 20.6349L2.06521 19.8097C2.06521 19.8097 6.02021 17.103 10.4405 17.4662C14.8608 17.8292 19.2478 19.8757 21.2419 25.2229C23.236 30.6032 18.9155 37.8978 12.3681 35.8513C12.3681 35.8513 18.5831 40.1753 22.2058 33.8048C26.6925 25.8831 20.2117 19.5127 20.2117 19.5127C20.2117 19.5127 13.6311 11.9539 2.06521 15.5187ZM3.69373 9.87448C3.29491 11.0628 2.96255 12.185 2.66344 13.2742C3.02903 13.1752 17.1872 9.24731 24.0005 21.6581C24.0005 21.6581 22.6711 8.35608 3.69373 9.87448ZM12.4014 28.6888C12.4014 29.1838 12.0026 29.5799 11.4708 29.5799C10.9723 29.5799 10.5734 29.1838 10.5734 28.6888C10.5734 28.1936 10.9723 27.7975 11.4708 27.7975C11.9693 27.7975 12.4014 28.1936 12.4014 28.6888ZM17.8852 1.91964C7.01727 -3.46057 4.62433 6.21061 4.29198 7.99302C4.39167 7.99302 11.9361 7.4649 15.9575 9.31331C19.9791 11.1617 28.9525 16.3109 25.4961 28.7548C25.4961 28.7548 26.4266 37.6337 18.1843 39.1851C9.97516 40.7364 8.14724 32.3856 8.14724 32.3856C8.14724 32.3856 4.95668 27.5334 10.3076 24.3978C10.3076 24.3978 12.6007 23.1104 14.8608 24.1997C17.154 25.2889 18.0182 27.7315 16.3564 29.5469C14.7279 31.3623 12.8335 30.4051 12.9664 29.3158C13.0993 28.2266 14.1296 28.5236 14.1961 28.5567C14.2626 28.5896 14.8275 29.0188 15.1599 27.6985C15.4923 26.3782 13.7308 25.4869 12.4346 25.7181C11.1384 25.9491 8.51283 26.9063 9.4767 30.5372C10.4405 34.168 14.1296 34.531 15.6584 34.0359C17.1872 33.5408 19.6134 32.3856 19.846 28.1936C20.0788 24.0347 15.8578 20.9319 14.0632 20.2388C12.2684 19.5787 7.4161 17.7632 2.16491 22.9784C0.536387 25.52 0.336975 28.5896 0.403446 30.6032C0.93521 36.2474 2.9958 38.1618 2.9958 38.1618C10.0417 46.6777 25.3631 49.1203 31.977 32.3525C38.5575 15.5848 29.8166 7.82796 17.8852 1.91964Z" fill="white"/>
</g>
</g>
<defs>
<clipPath id="clip0_2477_692">
<rect width="166.154" height="60" fill="white" transform="translate(0.384827)"/>
</clipPath>
</defs>
</svg>
