<svg width="77" height="64" viewBox="0 0 77 64" fill="none" xmlns="http://www.w3.org/2000/svg">
<path fill-rule="evenodd" clip-rule="evenodd" d="M75.7549 1.61489L69.6759 12.0674C69.4056 12.5253 68.9191 12.8059 68.3933 12.8059H31.3838C29.2854 12.8059 27.3689 13.9925 26.4253 15.8634L15.7417 37.0392C15.3141 37.886 15.3141 38.8904 15.7417 39.7372L21.1179 50.3866C21.3685 50.8839 21.8845 51.2039 22.4497 51.2039H38.5439V62.5131C38.5439 63.3403 37.8805 64.0049 37.0549 64.0049H18.5821V63.9754H13.4762C12.911 63.9754 12.395 63.6554 12.1444 63.1581L0.320649 39.7274C-0.106893 38.8805 -0.106893 37.8761 0.320649 37.0293L12.1444 13.6084C12.395 13.1112 12.911 12.7911 13.4762 12.7911H24.9903C26.8479 12.7911 28.5778 11.8655 29.6098 10.3146L36.2293 0.379106C36.4357 0.137857 36.7355 0 37.0451 0H74.831C75.6566 0 76.1726 0.896069 75.7549 1.61489ZM50.5987 60.4748C50.5987 62.5771 49.2178 64 47.0653 64C44.9129 64 43.5319 62.6362 43.5319 60.4748C43.5319 58.3134 44.903 56.9496 47.0653 56.9496C49.2276 56.9496 50.5987 58.3035 50.5987 60.4748ZM50.0778 60.4748C50.0778 58.7023 48.8787 57.4419 47.0604 57.4419C45.2421 57.4419 44.0332 58.6531 44.0332 60.4748C44.0332 62.2965 45.2421 63.5076 47.0604 63.5076C48.8787 63.5076 50.0778 62.2965 50.0778 60.4748ZM48.918 62.5131H48.3185L47.1538 60.7406H46.1611V62.5131H45.65V58.4857H47.2865C48.0334 58.4857 48.7214 58.7319 48.7214 59.623C48.7214 59.9824 48.5887 60.2975 48.3135 60.4945C48.1612 60.5979 47.9548 60.6766 47.7287 60.7111L48.918 62.5131ZM46.1611 58.9682V60.268H47.2865C47.7484 60.268 48.23 60.1351 48.23 59.623C48.23 59.0814 47.7582 58.9682 47.2865 58.9682H46.1611ZM62.5257 19.5461L75.3175 27.2858L75.3225 27.2957C76.3299 27.9062 76.9196 29.0189 76.8606 30.1956L76.6002 35.252L73.8531 33.4401C72.8604 32.7853 71.5876 32.7361 70.5458 33.3121L61.0858 38.5605C59.926 39.2055 58.9677 40.1607 58.319 41.3177L53.5227 49.8845C53.0657 50.7067 52.2007 51.2138 51.2621 51.2138H38.5489L44.6475 39.9637C45.0455 39.2449 44.5394 38.3587 43.7138 38.3587H29.885C28.7596 38.3587 28.047 37.1623 28.5729 36.1677L33.7476 26.3504C34.0081 25.8629 34.5142 25.5528 35.0696 25.5528H64.2113L64.6978 25.5183L65.5971 24.3908L62.5257 19.5461Z" fill="#CC7F2E"/>
</svg>
