<svg width="100" height="119" viewBox="0 0 100 119" fill="none" xmlns="http://www.w3.org/2000/svg">
<path d="M100 59.5C100.004 61.0539 99.608 62.5824 98.8513 63.9368C98.0946 65.2911 97.0027 66.4253 95.6818 67.2289L13.8182 117.653C12.438 118.504 10.8572 118.968 9.23908 118.998C7.62096 119.029 6.02417 118.623 4.61364 117.824C3.21653 117.038 2.05271 115.891 1.24184 114.501C0.430974 113.112 0.00233442 111.53 0 109.918V9.08189C0.00233442 7.47023 0.430974 5.88829 1.24184 4.49873C2.05271 3.10917 3.21653 1.96216 4.61364 1.17564C6.02417 0.376707 7.62096 -0.0286017 9.23908 0.0015695C10.8572 0.0317407 12.438 0.496298 13.8182 1.34726L95.6818 51.7711C97.0027 52.5747 98.0946 53.7089 98.8513 55.0632C99.608 56.4176 100.004 57.9461 100 59.5Z" fill="white"/>
</svg>
